<?xml version="1.0" encoding="UTF-8" standalone="no"?>
<!-- Created with Inkscape (http://www.inkscape.org/) -->

<svg
   xmlns:dc="http://purl.org/dc/elements/1.1/"
   xmlns:cc="http://creativecommons.org/ns#"
   xmlns:rdf="http://www.w3.org/1999/02/22-rdf-syntax-ns#"
   xmlns:svg="http://www.w3.org/2000/svg"
   xmlns="http://www.w3.org/2000/svg"
   xmlns:sodipodi="http://sodipodi.sourceforge.net/DTD/sodipodi-0.dtd"
   xmlns:inkscape="http://www.inkscape.org/namespaces/inkscape"
   width="114.83411mm"
   height="101.17163mm"
   viewBox="0 0 406.8925 358.48215"
   id="svg2"
   version="1.1"
   inkscape:version="0.91 r13725"
   sodipodi:docname="school desk flat.svg">
  <defs
     id="defs4">
    <clipPath
       id="clipEmfPath1"
       clipPathUnits="userSpaceOnUse">
      <path
         inkscape:connector-curvature="0"
         id="path4141"
         d="m 6.25143,7.50172 357.58157,0 0,241.30528 -357.58157,0 z" />
    </clipPath>
    <pattern
       y="0"
       x="0"
       height="6"
       width="6"
       patternUnits="userSpaceOnUse"
       id="EMFhbasepattern" />
  </defs>
  <sodipodi:namedview
     id="base"
     pagecolor="#ffffff"
     bordercolor="#666666"
     borderopacity="1.0"
     inkscape:pageopacity="0.0"
     inkscape:pageshadow="2"
     inkscape:zoom="0.35"
     inkscape:cx="195.58911"
     inkscape:cy="182.09822"
     inkscape:document-units="px"
     inkscape:current-layer="layer1"
     showgrid="false"
     fit-margin-top="0"
     fit-margin-left="0"
     fit-margin-right="0"
     fit-margin-bottom="0"
     inkscape:window-width="686"
     inkscape:window-height="405"
     inkscape:window-x="524"
     inkscape:window-y="75"
     inkscape:window-maximized="0" />
  <metadata
     id="metadata7">
    <rdf:RDF>
      <cc:Work
         rdf:about="">
        <dc:format>image/svg+xml</dc:format>
        <dc:type
           rdf:resource="http://purl.org/dc/dcmitype/StillImage" />
        <dc:title></dc:title>
      </cc:Work>
    </rdf:RDF>
  </metadata>
  <g
     inkscape:label="Layer 1"
     inkscape:groupmode="layer"
     id="layer1"
     transform="translate(-179.41089,-355.97826)">
    <path
       inkscape:connector-curvature="0"
       id="path4144"
       d="m 242.432,382.7067 0,245.97265 14.24675,0 0,-245.97265 -14.24675,0 z"
       style="fill:#a6a6a6;fill-opacity:1;fill-rule:evenodd;stroke:none" />
    <path
       inkscape:connector-curvature="0"
       id="path4146"
       d="m 242.432,382.7067 0,245.97265 14.24675,0 0,-245.97265 z"
       style="fill:none;stroke:#000000;stroke-width:4.46944809px;stroke-linecap:butt;stroke-linejoin:miter;stroke-miterlimit:8;stroke-dasharray:none;stroke-opacity:1" />
    <path
       inkscape:connector-curvature="0"
       id="path4148"
       d="m 256.49725,645.58508 -3.6297,-12.73871 -7.16872,0 -3.6297,12.73871 z"
       style="fill:#a6a6a6;fill-opacity:1;fill-rule:evenodd;stroke:none" />
    <path
       inkscape:connector-curvature="0"
       id="path4150"
       d="m 256.49725,645.58508 -3.6297,-12.73871 -7.16872,0 -3.6297,12.73871 z"
       style="fill:none;stroke:#000000;stroke-width:4.46944809px;stroke-linecap:butt;stroke-linejoin:miter;stroke-miterlimit:8;stroke-dasharray:none;stroke-opacity:1" />
    <path
       inkscape:connector-curvature="0"
       id="path4152"
       d="m 511.12296,382.7067 0,245.97265 14.24622,0 0,-245.97265 -14.24622,0 z"
       style="fill:#a6a6a6;fill-opacity:1;fill-rule:evenodd;stroke:none" />
    <path
       inkscape:connector-curvature="0"
       id="path4154"
       d="m 511.12296,382.7067 0,245.97265 14.24622,0 0,-245.97265 z"
       style="fill:none;stroke:#000000;stroke-width:4.46944809px;stroke-linecap:butt;stroke-linejoin:miter;stroke-miterlimit:8;stroke-dasharray:none;stroke-opacity:1" />
    <path
       inkscape:connector-curvature="0"
       id="path4156"
       d="m 525.55031,645.58508 -3.62888,-12.73871 -7.16955,0 -3.62892,12.73871 z"
       style="fill:#a6a6a6;fill-opacity:1;fill-rule:evenodd;stroke:none" />
    <path
       inkscape:connector-curvature="0"
       id="path4158"
       d="m 525.55031,645.58508 -3.62888,-12.73871 -7.16955,0 -3.62892,12.73871 z"
       style="fill:none;stroke:#000000;stroke-width:4.46944809px;stroke-linecap:butt;stroke-linejoin:miter;stroke-miterlimit:8;stroke-dasharray:none;stroke-opacity:1" />
    <path
       inkscape:connector-curvature="0"
       id="path4160"
       d="m 215.11829,400.08897 0,292.04775 16.87828,0 0,-292.04775 -16.87828,0 z"
       style="fill:#a6a6a6;fill-opacity:1;fill-rule:evenodd;stroke:none" />
    <path
       inkscape:connector-curvature="0"
       id="path4162"
       d="m 215.11829,400.08897 0,292.04775 16.87828,0 0,-292.04775 z"
       style="fill:none;stroke:#000000;stroke-width:4.46944809px;stroke-linecap:butt;stroke-linejoin:miter;stroke-miterlimit:8;stroke-dasharray:none;stroke-opacity:1" />
    <path
       inkscape:connector-curvature="0"
       id="path4164"
       d="m 231.99657,711.90072 -4.53711,-15.83467 -8.98365,0 -4.44642,15.83467 z"
       style="fill:#a6a6a6;fill-opacity:1;fill-rule:evenodd;stroke:none" />
    <path
       transform="matrix(1.1612476,0,0,1.5235872,167.02441,338.65534)"
       inkscape:connector-curvature="0"
       id="path4166"
       d="m 55.9503,244.978 -3.9071,-10.393 -7.7362,0 -3.829,10.393 z"
       clip-path="url(#clipEmfPath1)"
       style="fill:none;stroke:#000000;stroke-width:3.36014342px;stroke-linecap:butt;stroke-linejoin:miter;stroke-miterlimit:8;stroke-dasharray:none;stroke-opacity:1" />
    <path
       inkscape:connector-curvature="0"
       id="path4168"
       d="m 534.26198,400.08897 0,292.04775 16.87874,0 0,-292.04775 -16.87874,0 z"
       style="fill:#a6a6a6;fill-opacity:1;fill-rule:evenodd;stroke:none" />
    <path
       inkscape:connector-curvature="0"
       id="path4170"
       d="m 534.26198,400.08897 0,292.04775 16.87874,0 0,-292.04775 z"
       style="fill:none;stroke:#000000;stroke-width:4.46944809px;stroke-linecap:butt;stroke-linejoin:miter;stroke-miterlimit:8;stroke-dasharray:none;stroke-opacity:1" />
    <path
       inkscape:connector-curvature="0"
       id="path4172"
       d="m 552.22884,711.90072 -4.53703,-15.83467 -8.98341,0 -4.44642,15.83467 z"
       style="fill:#a6a6a6;fill-opacity:1;fill-rule:evenodd;stroke:none" />
    <path
       transform="matrix(1.1612476,0,0,1.5235872,167.02441,338.65534)"
       inkscape:connector-curvature="0"
       id="path4174"
       d="m 331.716,244.978 -3.907,-10.393 -7.736,0 -3.829,10.393 z"
       clip-path="url(#clipEmfPath1)"
       style="fill:none;stroke:#000000;stroke-width:3.36014342px;stroke-linecap:butt;stroke-linejoin:miter;stroke-miterlimit:8;stroke-dasharray:none;stroke-opacity:1" />
    <path
       inkscape:connector-curvature="0"
       id="path4176"
       d="m 187.1694,441.52096 c -3.26671,0 -5.80751,3.45274 -5.80751,7.61976 0,4.28601 2.5408,7.61961 5.80751,7.61961 l 391.37563,0 c 3.26659,0 5.80739,-3.3336 5.80739,-7.61961 0,-4.16702 -2.5408,-7.61976 -5.80739,-7.61976 z"
       style="fill:#fce5d6;fill-opacity:1;fill-rule:evenodd;stroke:none" />
    <path
       transform="matrix(1.1612476,0,0,1.5235872,167.02441,338.65534)"
       inkscape:connector-curvature="0"
       id="path4178"
       d="m 17.3477,67.5154 c -2.8131,0 -5.0011,2.2662 -5.0011,5.0012 0,2.8131 2.188,5.0011 5.0011,5.0011 l 337.0303,0 c 2.813,0 5.001,-2.188 5.001,-5.0011 0,-2.735 -2.188,-5.0012 -5.001,-5.0012 z"
       clip-path="url(#clipEmfPath1)"
       style="fill:none;stroke:#000000;stroke-width:3.36014342px;stroke-linecap:butt;stroke-linejoin:round;stroke-miterlimit:10;stroke-dasharray:none;stroke-opacity:1" />
    <path
       inkscape:connector-curvature="0"
       id="path4180"
       d="m 583.35375,442.94979 -23.22958,-84.41175 -354.5339,0 -23.23029,84.41175 z"
       style="fill:#f8cbad;fill-opacity:1;fill-rule:evenodd;stroke:none" />
    <path
       transform="matrix(1.1612476,0,0,1.5235872,167.02441,338.65534)"
       inkscape:connector-curvature="0"
       id="path4182"
       d="m 358.519,68.4532 -20.004,-55.4033 -305.3043,0 -20.0046,55.4033 z"
       clip-path="url(#clipEmfPath1)"
       style="fill:none;stroke:#000000;stroke-width:3.36014342px;stroke-linecap:butt;stroke-linejoin:miter;stroke-miterlimit:8;stroke-dasharray:none;stroke-opacity:1" />
    <path
       inkscape:connector-curvature="0"
       id="path4184"
       d="m 227.82233,425.32918 c -1.45189,0 -2.72229,1.6668 -2.72229,3.57178 0,2.02391 1.2704,3.69071 2.72229,3.69071 l 308.98049,0 c 1.54329,0 2.72197,-1.6668 2.72197,-3.69071 0,-1.90498 -1.17868,-3.57178 -2.72197,-3.57178 z"
       style="fill:#f5b183;fill-opacity:1;fill-rule:evenodd;stroke:none" />
    <path
       inkscape:connector-curvature="0"
       id="path4186"
       d="m 227.82233,425.32918 c -1.45189,0 -2.72229,1.6668 -2.72229,3.57178 0,2.02391 1.2704,3.69071 2.72229,3.69071 l 308.98049,0 c 1.54329,0 2.72197,-1.6668 2.72197,-3.69071 0,-1.90498 -1.17868,-3.57178 -2.72197,-3.57178 z"
       style="fill:none;stroke:#000000;stroke-width:4.46944809px;stroke-linecap:butt;stroke-linejoin:round;stroke-miterlimit:10;stroke-dasharray:none;stroke-opacity:1" />
  </g>
</svg>
